<svg width="1187" height="3652" viewBox="0 0 1187 3652" fill="none" xmlns="http://www.w3.org/2000/svg">
<path fill-rule="evenodd" clip-rule="evenodd" d="M581.5 1.54904C574.9 2.22404 566.575 3.30205 563 3.94405C553.821 5.59305 536.681 10.074 535.55 11.121C535.028 11.604 533.868 12 532.972 12C528.963 12 506.129 22.56 492.065 30.918C475.968 40.485 463.16 50.6571 448 65.9151C427.345 86.7051 418.968 98.857 408.905 122.636C401.016 141.274 399.2 148.352 395.078 176.5C392.383 194.909 391.428 205.47 390.464 227.5C390.128 235.2 389.684 242.039 389.478 242.698C389.272 243.356 387.273 244.388 385.036 244.99C379.896 246.374 374.239 249.684 372.974 252.048C372.438 253.049 372 256.372 372 259.431C372 264.401 372.379 265.414 375.556 268.93C377.511 271.094 380.342 273.136 381.846 273.466C386.692 274.531 390.444 277.564 392.82 282.338C394.096 284.902 395.735 287 396.462 287C397.894 287 398.479 288.797 399.554 296.5C399.938 299.25 400.691 302.051 401.227 302.724C402.15 303.883 401.554 314.062 400.308 318.417C399.845 320.034 399.549 319.832 398.409 317.122C396.628 312.886 388.079 304.503 385.331 304.298C384.138 304.209 382.914 304.781 382.612 305.568C382.31 306.356 382.447 307 382.916 307C383.386 307 382.296 308.609 380.495 310.575C377.339 314.021 376 317.61 376 322.625C376 325.851 377.822 325.627 379.045 322.25C379.593 320.737 380.441 318.6 380.93 317.5C381.419 316.4 382.07 314.712 382.378 313.75C382.686 312.788 383.604 312 384.419 312C385.234 312 386.307 311.274 386.804 310.386C389.098 306.287 394.635 313.663 397.489 324.621C398.303 327.746 399.149 330.482 399.368 330.701C399.587 330.921 399.346 332.765 398.833 334.8C397.679 339.369 397.25 350.037 398.196 350.622C398.58 350.858 398.355 352.728 397.696 354.776C397.038 356.824 396.501 361.538 396.501 365.25C396.502 368.962 396.258 372 395.959 372C395.659 372 395.434 373.913 395.457 376.25C395.481 378.587 394.961 381.593 394.301 382.928C393.642 384.264 393.331 385.726 393.61 386.178C393.89 386.63 393.653 387 393.084 387C392.413 387 392.362 387.821 392.937 389.333C393.425 390.617 393.526 392.149 393.162 392.738C392.257 394.202 392.429 411.268 393.365 412.782C393.793 413.475 393.613 414 392.946 414C392.212 414 391.938 415.122 392.213 417C392.459 418.671 392.199 420 391.627 420C390.981 420 391.017 420.417 391.723 421.123C392.537 421.937 392.548 422.897 391.764 424.619C390.91 426.493 391.02 427.365 392.291 428.769C393.391 429.985 393.604 431.012 392.965 432.023C392.278 433.109 392.027 433.153 392.015 432.191C392.007 431.46 391.492 431.196 390.849 431.594C390.031 432.099 390.157 432.642 391.282 433.464C393.318 434.953 394.505 439.57 393.078 440.452C392.303 440.931 392.314 441.718 393.115 443.214C394.575 445.942 394.892 453.995 393.54 454.015C392.968 454.024 393.077 454.397 393.782 454.844C394.63 455.382 395.212 459.015 395.502 465.579C396.157 480.404 396.886 485.196 398.69 486.515C399.831 487.35 399.966 487.903 399.151 488.406C398.518 488.798 398.007 489.654 398.015 490.309C398.025 491.025 398.418 490.901 399 490C399.781 488.792 399.972 488.948 399.985 490.798C399.993 492.062 400.9 494.959 402 497.236C403.1 499.513 404 501.993 404 502.747C404 503.501 404.45 503.84 405 503.5C405.565 503.151 406 503.975 406 505.397C406 506.78 407.265 510.069 408.811 512.706C410.357 515.343 411.917 518.288 412.279 519.25C412.641 520.212 413.449 521 414.076 521C414.702 521 414.969 521.638 414.67 522.417C414.371 523.197 414.773 524.083 415.563 524.386C416.353 524.689 417 525.851 417 526.969C417 528.231 417.663 529.006 418.75 529.015C419.966 529.026 420.127 529.268 419.278 529.807C417.608 530.868 420.89 538.256 422.719 537.554C423.547 537.237 424 537.935 424 539.531C424 540.889 424.488 542 425.083 542C425.679 542 425.973 542.562 425.735 543.25C425.498 543.938 426.403 545.53 427.746 546.79C429.09 548.049 430.284 549.73 430.401 550.524C430.517 551.319 431.6 553.105 432.806 554.492C434.013 555.88 435 557.488 435 558.067C435 558.645 435.45 558.84 436 558.5C436.55 558.16 437 558.377 437 558.983C437 559.588 437.884 561.033 438.965 562.193C440.046 563.354 440.695 564.685 440.406 565.151C440.118 565.618 440.471 566 441.191 566C443.123 566 448.23 572.804 447.392 574.262C447 574.943 447.014 575.2 447.423 574.833C448.414 573.945 452 577.6 452 579.5C452 580.325 452.675 581 453.5 581C454.325 581 455 581.47 455 582.045C455 582.62 456.05 584.141 457.333 585.424C458.617 586.708 459.729 588.375 459.804 589.129C459.88 589.883 460.137 591.707 460.375 593.182C460.674 595.029 460.424 595.716 459.571 595.389C458.89 595.128 458.333 595.631 458.333 596.508C458.333 598.074 461.399 601.033 466.096 604C467.402 604.825 471.884 608.763 476.057 612.75C480.23 616.738 484.399 620 485.322 620C486.245 620 487 620.45 487 621C487 621.55 486.127 622 485.059 622C483.991 622 482.88 622.386 482.588 622.857C482.297 623.329 479.233 624.269 475.779 624.946C472.326 625.624 468.6 626.582 467.5 627.076C466.4 627.57 463.025 628.618 460 629.405C449.976 632.011 429.319 638.745 421.5 641.955C418.353 643.248 406.711 648.053 404.5 648.971C399.831 650.912 376.457 662.324 376 662.886C375.725 663.223 373.925 664.356 372 665.403C370.075 666.45 366.565 668.587 364.2 670.153C361.835 671.719 359.472 673 358.95 673C358.427 673 357.995 673.337 357.989 673.75C357.982 674.163 356.074 675.4 353.749 676.5C345.497 680.403 327.138 701.52 314.995 721.076C305.892 735.737 301.541 744.724 292.382 767.796C287.359 780.448 285.607 782.991 277.775 789C275.265 790.925 272.377 793.736 271.356 795.247C270.335 796.758 269.022 797.996 268.437 797.997C267.852 797.999 266.081 799.35 264.5 801C262.919 802.65 260.762 804 259.707 804C258.651 804 256.903 805.125 255.821 806.5C254.74 807.875 252.999 809 251.953 809C250.851 809 249.399 810.262 248.5 812C247.647 813.65 246.144 815 245.161 815C244.178 815 242.081 816.35 240.5 818C238.919 819.65 236.995 821 236.223 821C235.452 821 231.491 823.7 227.42 827C223.35 830.3 219.707 833 219.324 833C218.571 833 210.341 839.627 205.5 844.132C203.85 845.668 199.29 849.304 195.366 852.212C183.104 861.302 151.154 891.775 139.496 905.5C133.826 912.175 123 928.033 115.26 941C110.498 948.978 96 977.219 96 978.517C96 978.843 95.067 981.223 93.928 983.805C86.226 1001.26 84.473 1005.95 77.07 1029C73.626 1039.73 70.548 1049.18 70.231 1050C69.632 1051.56 67.629 1059.49 66.031 1066.62C65.523 1068.89 64.175 1072.41 63.035 1074.44C61.895 1076.47 61.219 1078.54 61.533 1079.05C61.847 1079.56 61.391 1081.48 60.519 1083.32C59.647 1085.16 58.535 1088.87 58.048 1091.58C57.562 1094.29 56.211 1100.78 55.046 1106C52.279 1118.41 49.55 1132.96 47.542 1146C46.653 1151.78 45.295 1160.55 44.525 1165.5C43.755 1170.45 42.838 1177.42 42.487 1181C42.137 1184.58 41.219 1192.68 40.447 1199C39.048 1210.46 36.573 1240.52 35.464 1259.5C35.143 1265 34.486 1271.08 34.004 1273C33.272 1275.92 31.593 1286.66 29.548 1301.5C29.321 1303.15 28.434 1309.45 27.578 1315.5C26.722 1321.55 25.81 1328.3 25.551 1330.5C25.292 1332.7 24.617 1338.1 24.051 1342.5C21.824 1359.81 19.986 1377.13 18.959 1390.5C18.367 1398.2 17.454 1407.42 16.928 1411C15.643 1419.75 12.472 1440.72 10.122 1456C9.06498 1462.88 7.91396 1471.65 7.56296 1475.5C7.21196 1479.35 6.49799 1485.65 5.97599 1489.5C5.45399 1493.35 4.80996 1499.42 4.54596 1503C0.880964 1552.61 0.308979 1565.18 0.629979 1589C1.04398 1619.71 2.36998 1636.08 6.09598 1656.5C11.141 1684.14 23.555 1721.99 35.452 1746C45.341 1765.96 51.96 1778.33 53.149 1779.08C53.656 1779.4 55.014 1781.42 56.168 1783.57C57.321 1785.73 59.78 1789.34 61.632 1791.6C63.484 1793.86 65 1796.19 65 1796.78C65 1797.37 66.575 1799.53 68.5 1801.57C70.425 1803.61 72 1805.66 72 1806.13C72 1806.6 74.137 1809.4 76.75 1812.35C79.363 1815.31 84.425 1821.23 88 1825.51C94.944 1833.82 125.216 1864.65 133.472 1871.81C140.404 1877.83 162.422 1894.89 167.929 1898.51C172.223 1901.33 172.519 1901.82 172.814 1906.48C172.987 1909.21 173.557 1911.97 174.081 1912.6C174.606 1913.23 174.764 1914.45 174.434 1915.31C173.872 1916.78 175.968 1939.44 178.012 1954C178.514 1957.58 179.402 1966.57 179.985 1974C181.22 1989.73 183.472 2008.35 185.429 2019C186.187 2023.12 187.355 2029.88 188.026 2034C189.685 2044.21 195.274 2066.76 198.833 2077.59C200.441 2082.49 202.974 2090.78 204.462 2096C208.397 2109.82 214.345 2121.45 220.651 2127.65C225.508 2132.43 228.35 2137.18 229.461 2142.38C229.71 2143.55 230.668 2146.53 231.589 2149C232.511 2151.47 233.599 2155.08 234.008 2157C235.182 2162.54 239.985 2180.3 240.903 2182.5C248.079 2199.72 255.95 2207.72 272.835 2214.93C286.681 2220.85 292.173 2223 293.452 2223C294.177 2223 296.06 2223.67 297.636 2224.49C299.211 2225.31 301.296 2225.99 302.268 2225.99C303.241 2226 307.516 2226.95 311.768 2228.1C316.021 2229.26 321.75 2230.44 324.5 2230.71C327.25 2230.98 330.258 2231.61 331.184 2232.1C332.111 2232.6 334.533 2233 336.568 2233C338.603 2233 341.895 2233.43 343.884 2233.96C348.617 2235.22 378.635 2239.25 382.5 2239.15C384.15 2239.1 386.85 2239.5 388.5 2240.03C390.15 2240.56 394.2 2241.2 397.5 2241.46C410.589 2242.48 417.503 2243.19 418.115 2243.57C418.467 2243.79 422.298 2244.22 426.628 2244.53C430.957 2244.84 438.325 2245.56 443 2246.13C447.675 2246.69 453.525 2247.33 456 2247.55C458.475 2247.76 462.3 2248.14 464.5 2248.4C472.809 2249.34 497.917 2250.83 518 2251.57C539.352 2252.35 652.767 2252.4 672.5 2251.64C692.437 2250.86 703.037 2250.28 712 2249.45C715.575 2249.12 720.075 2248.72 722 2248.55C723.925 2248.38 728.65 2247.96 732.5 2247.63C736.35 2247.29 741.075 2246.83 743 2246.6C744.925 2246.37 753.025 2245.43 761 2244.51C768.975 2243.59 776.85 2242.66 778.5 2242.43C780.15 2242.21 785.026 2241.79 789.336 2241.5C793.646 2241.21 798.031 2240.52 799.08 2239.96C800.129 2239.4 802.453 2239.01 804.244 2239.09C807.816 2239.26 819.981 2237.77 834.892 2235.34C840.176 2234.48 846.975 2233.41 850 2232.97C878.618 2228.8 907.756 2219.58 925.973 2208.94C931.595 2205.66 938.61 2197.86 941.853 2191.29C946.46 2181.96 946.955 2180.79 947.277 2178.5C947.431 2177.4 947.827 2176.05 948.155 2175.5C948.483 2174.95 950.198 2168.88 951.966 2162C953.733 2155.12 955.779 2148.15 956.511 2146.5C957.244 2144.85 958.565 2140.92 959.448 2137.76C960.599 2133.64 961.821 2131.52 963.77 2130.26C968.154 2127.42 970.628 2124.05 975.344 2114.5C979.574 2105.93 982.205 2098.97 984.988 2089C985.679 2086.53 987.499 2080.45 989.034 2075.5C994.538 2057.75 995.923 2052.3 998.436 2038.5C1002.17 2018.03 1004.74 1999.67 1006.5 1981C1007.36 1971.93 1008.5 1960.68 1009.04 1956C1011.25 1936.97 1012.2 1927.14 1012.48 1920.34C1012.64 1916.4 1012.97 1912.8 1013.22 1912.34C1013.46 1911.88 1013.76 1909.7 1013.88 1907.5C1014.1 1903.5 1016.25 1899 1017.94 1899C1019.48 1899 1044.77 1879.52 1056 1869.68C1066.84 1860.18 1091.6 1835.09 1098.11 1826.99C1100.1 1824.52 1104.15 1819.65 1107.11 1816.16C1110.08 1812.67 1113.18 1808.62 1114 1807.16C1114.82 1805.7 1116.02 1804.16 1116.66 1803.75C1117.3 1803.34 1119.89 1799.85 1122.43 1796C1124.97 1792.15 1127.38 1789 1127.79 1789C1128.19 1789 1129.62 1786.7 1130.95 1783.9C1132.28 1781.09 1133.96 1778.57 1134.69 1778.29C1135.41 1778.01 1136 1777.44 1136 1777.02C1136 1775.74 1138.84 1769.75 1141.47 1765.5C1142.83 1763.3 1144.62 1760.15 1145.45 1758.5C1146.28 1756.85 1147.38 1754.82 1147.89 1754C1148.67 1752.73 1154.43 1739.8 1161.03 1724.5C1163.86 1717.94 1173.1 1690.17 1175.67 1680.5C1183.72 1650.21 1186.28 1626.51 1186.24 1582.5C1186.21 1553.13 1184.18 1508.06 1182.54 1500.5C1182.3 1499.4 1181.82 1495.35 1181.48 1491.5C1180.11 1476.23 1176.89 1452.75 1172.14 1423.5C1169.91 1409.78 1169.09 1403.12 1168.48 1393.96C1168.25 1390.41 1167.59 1383 1167.02 1377.5C1165.91 1366.86 1165.08 1358.46 1164.88 1356C1164.64 1352.9 1159.01 1310.24 1158.02 1304C1157.45 1300.42 1156.56 1294.3 1156.03 1290.39C1155.51 1286.47 1154.4 1280 1153.57 1275.99C1152.73 1271.99 1151.79 1263.26 1151.47 1256.6C1150.95 1245.53 1148.29 1213.73 1146.03 1191.5C1144.21 1173.63 1138.77 1138.03 1135.48 1122.5C1134.55 1118.1 1133.64 1113.38 1133.46 1112C1133.28 1110.62 1132.22 1106.12 1131.09 1102C1129.97 1097.88 1129.04 1092.87 1129.02 1090.87C1129.01 1088.88 1128.33 1086.69 1127.51 1086.01C1126.69 1085.33 1126.25 1084.41 1126.53 1083.96C1126.8 1083.51 1126.54 1082.83 1125.94 1082.46C1125.33 1082.09 1125.09 1080.77 1125.4 1079.54C1125.71 1078.31 1125.63 1076.97 1125.23 1076.56C1124.83 1076.16 1124.47 1075.53 1124.44 1075.17C1124.41 1074.8 1123.61 1072.74 1122.68 1070.6C1121.74 1068.45 1121.18 1066.49 1121.43 1066.24C1121.68 1065.99 1121.01 1063.56 1119.94 1060.85C1118.87 1058.14 1118 1055.04 1118 1053.95C1118 1052.86 1117.57 1051.19 1117.05 1050.24C1116.53 1049.28 1114.46 1043.1 1112.45 1036.5C1110.44 1029.9 1107.92 1022.03 1106.85 1019C1105.77 1015.98 1104.01 1010.73 1102.94 1007.34C1101.86 1003.95 1100.31 999.904 1099.49 998.341C1098.68 996.778 1098.01 995.207 1098.01 994.849C1098 994.491 1096.26 990.441 1094.13 985.849C1092 981.257 1089.92 976.406 1089.5 975.068C1088.17 970.746 1072.73 941.516 1070.41 938.921C1069.63 938.053 1069 936.961 1069 936.496C1069 934.926 1051.73 909.932 1049.35 908.063C1048.06 907.045 1047 905.737 1047 905.156C1047 902.765 1005.64 862.915 993.167 853.283C989.759 850.653 982.819 845.013 977.745 840.75C972.671 836.488 968.008 833 967.382 833C966.757 833 965.663 832.299 964.951 831.441C962.742 828.779 952.051 821 950.601 821C949.844 821 948.162 819.654 946.863 818.009C945.563 816.364 943.6 815.011 942.5 815.003C941.335 814.994 939.789 813.738 938.797 811.994C937.785 810.216 936.271 809 935.07 809C933.957 809 932.309 807.875 931.408 806.5C930.507 805.125 929.008 804 928.078 804C926.082 804 921.997 800.807 913.046 792.25C909.45 788.812 906.187 786 905.795 786C903.817 786 899.77 779.73 896.496 771.594C894.484 766.592 891.524 759.539 889.919 755.92C888.313 752.301 887 748.994 887 748.571C887 747.195 877.862 729.583 875.548 726.5C874.31 724.85 872.489 721.925 871.502 720C868.909 714.945 857.517 699.879 848.703 689.849C842.075 682.308 839.298 680.096 827.048 672.599C819.319 667.87 812.584 664 812.081 664C811.578 664 811.017 663.662 810.833 663.25C809.927 661.21 774.414 644.732 761 640.128C751.415 636.837 736.702 632.071 730 630.086C725.875 628.863 721.375 627.483 720 627.019C718.625 626.554 714.661 625.586 711.19 624.867C707.72 624.149 704.459 623.054 703.945 622.434C702.821 621.079 715.777 607.966 723.75 602.389C727.057 600.076 729 597.989 729 596.751C729 595.475 728.508 594.975 727.596 595.325C725.226 596.234 726.88 589.026 729.694 586.179C730.412 585.452 731 584.139 731 583.262C731 582.385 731.292 581.958 731.648 582.315C732.467 583.134 735.043 580.192 737.494 575.642C738.533 573.712 740.422 571.577 741.692 570.897C742.961 570.218 744 569.085 744 568.381C744 567.676 744.787 566.641 745.75 566.08C746.713 565.519 747.145 565.047 746.711 565.03C746.277 565.014 746.84 564.015 747.961 562.811C749.082 561.608 750 560.006 750 559.252C750 558.499 750.45 558.16 751 558.5C751.55 558.84 752 558.594 752 557.953C752 557.312 753.125 555.903 754.5 554.821C755.875 553.74 757 551.973 757 550.896C757 549.819 757.675 548.678 758.5 548.362C759.325 548.045 760 547.159 760 546.393C760 545.627 760.525 545 761.167 545C761.808 545 762.032 544.699 761.664 544.331C761.297 543.963 761.726 542.855 762.619 541.868C763.512 540.882 763.986 539.406 763.672 538.588C763.317 537.662 763.572 537.282 764.35 537.581C765.108 537.871 766.464 536.08 767.795 533.03C769.003 530.264 770.387 528 770.871 528C771.354 528 772.002 526.74 772.31 525.201C772.618 523.661 774.699 519.229 776.935 515.351C779.171 511.473 781 507.594 781 506.732C781 504.266 782.127 501.96 783.053 502.532C783.516 502.819 783.722 502.151 783.509 501.047C783.295 499.935 783.618 499.143 784.234 499.27C784.845 499.397 785.845 497.79 786.456 495.701C787.068 493.611 787.911 492.244 788.33 492.663C788.749 493.082 788.777 491.46 788.393 489.059C787.884 485.876 788.007 484.887 788.848 485.406C789.953 486.089 790.379 483.813 790.141 478.5C790.091 477.4 790.302 477.063 790.609 477.75C791.943 480.74 792.489 478.422 792.335 470.419C792.244 465.699 791.907 461.574 791.585 461.252C790.399 460.066 791.054 459 792.969 459C794.354 459 794.757 458.531 794.329 457.416C793.84 456.141 793.557 456.092 792.876 457.166C792.411 457.9 792.024 458.028 792.015 457.45C792.007 456.873 792.563 455.804 793.25 455.075C794.205 454.063 794.218 453.646 793.306 453.31C792.65 453.069 792.343 452.27 792.624 451.537C792.906 450.803 792.656 449.905 792.068 449.542C791.481 449.179 791.032 448.121 791.07 447.191C791.128 445.812 791.299 445.87 792 447.5C792.855 449.489 793.46 448.221 793.075 445.25C792.985 444.563 793.382 444 793.956 444C795.25 444 795.349 440.292 794.068 439.833C793.543 439.645 793.451 437.974 793.859 436C794.257 434.075 795.002 432.646 795.516 432.825C796.03 433.004 796.635 432.595 796.861 431.916C797.125 431.125 796.684 430.907 795.636 431.309C793.969 431.949 793.319 430.015 794.727 428.606C795.874 427.459 795.904 414 794.76 414C794.104 414 794.115 413.566 794.793 412.75C796.485 410.711 796.547 410.373 795.5 408.904C794.95 408.132 794.5 402.89 794.5 397.256C794.5 391.621 794.244 387.009 793.932 387.006C793.619 387.003 793.325 385.763 793.278 384.25C793.104 378.678 792.538 376 791.532 375.985C790.964 375.976 791.175 375.533 792 375C792.825 374.467 793.018 374.024 792.429 374.015C791.84 374.007 791.23 371.638 791.075 368.75C790.323 354.78 790.362 353.105 791.422 353.694C792.025 354.029 791.981 353.732 791.322 353.018C790.588 352.225 790.469 351.131 791.007 350.122C792.606 347.12 793.641 342.525 793.57 338.75C793.532 336.687 793.823 335 794.219 335C794.614 335 794.653 334.26 794.306 333.355C793.94 332.402 794.331 331.231 795.235 330.57C796.093 329.943 797.471 327.154 798.297 324.372C801.362 314.05 807.035 306.322 808.584 310.358C808.889 311.153 809.993 312.026 811.037 312.299C812.969 312.805 815.411 317.286 816.458 322.25C816.787 323.81 817.705 325 818.58 325C822.155 325 817.564 310.599 813.172 308.037C812.253 307.5 812.048 307.047 812.719 307.03C814.718 306.981 812.948 304 810.918 304C809.891 304 806.327 306.665 802.998 309.923L796.944 315.846L797.49 311.298C797.791 308.797 798.337 306.263 798.706 305.667C799.074 305.072 799.515 303.553 799.687 302.292C799.859 301.032 800.157 298.815 800.349 297.366C800.541 295.917 801.673 294.21 802.864 293.573C805.62 292.098 808.361 286.952 809.947 280.273C811.027 275.724 811.716 274.751 815.256 272.773C821.124 269.494 823.298 266.049 823.781 259.263C824.226 253.004 823.289 251.222 817.67 247.649C814.853 245.857 814.843 245.811 815.294 237.175C816.039 222.909 814.291 197.628 811.615 183.966C809.289 172.089 804.87 154.856 803.034 150.5C802.57 149.4 800.728 144.675 798.94 140C788.495 112.684 771.226 86.0771 749.686 64.1141C721.223 35.0921 693.592 18.846 652 6.68004C647.001 5.21804 634.766 2.92704 624.5 1.53204C615.949 0.370044 592.935 0.379042 581.5 1.54904ZM632 98.4331C656.361 100.851 687.431 105.945 696 108.925C697.375 109.403 701.2 110.571 704.5 111.52C710.247 113.173 715.776 115.497 730 122.238C737.472 125.779 750.96 134.469 755.813 138.869C765.978 148.086 768.984 151.057 773.651 156.5C778.424 162.067 788.026 177.15 792.749 186.5C795.258 191.468 798.14 202.064 803.63 226.5C804.314 229.543 805.762 242.456 805.46 242.819C805.314 242.995 803.238 242.264 800.847 241.195C792.863 237.626 778.295 233.726 766.5 231.999C752.322 229.924 753.075 230.364 750.273 222.5C748.902 218.65 747.25 214.825 746.603 214C745.955 213.175 742.317 206.318 738.518 198.763C731.33 184.47 730.774 183.876 723.5 182.72C722.4 182.545 720.6 181.916 719.5 181.321C713.367 178.005 689.016 175.596 679.5 177.365C678.4 177.569 675.858 178.032 673.85 178.395C671.843 178.757 669.672 179.691 669.025 180.47C668.105 181.579 667.32 181.647 665.428 180.785C662.422 179.416 660.283 181.106 656.861 187.556C655.564 190 654.165 192 653.752 192C653.338 192 653 192.472 653 193.048C653 193.624 651.527 196.437 649.727 199.298C646.624 204.23 645.462 206.504 642.462 213.512L641.172 216.524L650.836 216.442C656.151 216.397 661.668 215.867 663.096 215.263C664.524 214.66 667.674 214.146 670.096 214.121C672.518 214.096 675.625 213.841 677 213.555C682.348 212.44 684.695 212.053 690 211.409C693.025 211.042 696.85 210.646 698.5 210.53C700.15 210.414 704.678 209.985 708.563 209.576L715.626 208.835L725.063 217.114C734.096 225.038 735.955 226.892 735.981 228C735.988 228.275 726.657 228.563 715.247 228.639C675.983 228.903 659.28 233.097 641.325 247.202C625.012 260.017 616.274 283.929 627.5 285.034C631.878 285.464 633.022 284.883 634.431 281.511C638.058 272.83 649.322 260.393 657.154 256.423C666.35 251.761 682.831 248.525 703.241 247.375C714.727 246.728 742.902 248.351 750.968 250.124C758.312 251.738 769.681 257.93 774.095 262.719C778.315 267.297 782.964 276.054 783.004 279.5C783.066 284.819 784.056 286 788.45 286C790.769 286 792.914 286.247 793.216 286.549C793.518 286.851 793.338 288.989 792.817 291.299C792.295 293.61 790.757 302.025 789.4 310C788.042 317.975 786.244 326.975 785.405 330C781.706 343.338 778.553 352.631 777.177 354.25C776.184 355.418 776.082 356 776.868 356C777.652 356 777.504 356.828 776.423 358.477C775.53 359.839 774.8 362.538 774.8 364.474C774.8 366.41 774.426 367.763 773.969 367.481C773.512 367.198 772.849 367.436 772.495 368.008C772.141 368.581 772.391 368.926 773.051 368.775C773.71 368.624 774.477 369.125 774.755 369.889C775.064 370.74 774.822 371.008 774.13 370.58C773.468 370.171 773 370.552 773 371.5C773 372.528 773.456 372.844 774.25 372.367C775.131 371.838 775.104 372.105 774.155 373.274C773.416 374.187 773.014 375.51 773.262 376.216C773.51 376.922 773.286 378.625 772.765 380C772.244 381.375 771.604 385.843 771.342 389.928C771.081 394.013 770.222 398.603 769.434 400.128C768.645 401.653 768 403.598 768 404.45C768 405.303 767.544 406 766.986 406C766.428 406 766.188 407.237 766.453 408.75C766.978 411.749 766.246 413.461 764.151 414.133C763.409 414.371 762.173 416.061 761.405 417.889C760.178 420.805 760.19 421.141 761.504 420.637C762.327 420.321 763 420.285 763 420.556C763 420.827 761.884 421.474 760.519 421.993C758.99 422.574 758.245 423.474 758.577 424.339C759.149 425.831 756.437 427.388 754.91 426.444C754.409 426.135 754 426.61 754 427.5C754 428.468 754.464 428.832 755.155 428.405C755.876 427.959 756.037 428.131 755.585 428.862C755.187 429.506 754.433 429.768 753.909 429.444C753.385 429.12 750.76 430.207 748.076 431.858C745.391 433.51 742.965 434.632 742.684 434.351C742.403 434.07 741.122 434.49 739.837 435.283C738.552 436.077 736.271 436.633 734.77 436.519C732.37 436.336 732.111 436.595 732.628 438.655C733.029 440.253 732.784 441 731.858 441C730.916 441 730.451 442.533 730.34 446C730.252 448.75 730.139 451.675 730.09 452.5C730.04 453.325 730.05 454.563 730.111 455.25C730.348 457.916 729.581 465 729.054 465.003C728.75 465.005 728.486 467.11 728.468 469.68C728.45 472.441 727.938 474.521 727.218 474.761C726.548 474.984 726 475.606 726 476.142C726 476.679 726.45 476.84 727 476.5C727.55 476.16 728 476.809 728 477.941C728 479.073 727.662 480 727.248 480C726.834 480 726.394 481.237 726.269 482.75C725.588 491.005 724.832 492.852 721.479 494.443C719.654 495.309 718.006 496.483 717.816 497.052C717.626 497.621 716.24 498.218 714.734 498.378C711.664 498.705 709.748 500 712.333 500C713.25 500 714 500.498 714 501.107C714 501.716 713.325 501.955 712.5 501.638C711.675 501.322 711 501.499 711 502.031C711 502.564 711.477 503 712.059 503C712.641 503 712.835 503.457 712.49 504.016C712.144 504.575 711.373 504.731 710.776 504.362C710.129 503.961 709.979 504.156 710.405 504.845C710.799 505.483 710.558 506 709.868 506C709.18 506 709.491 506.661 710.559 507.468C711.626 508.276 711.973 508.951 711.329 508.968C710.686 508.986 709.879 510.275 709.537 511.833C708.891 514.771 706 515.834 706 513.133C706 511.925 705.741 511.859 704.777 512.823C704.104 513.496 703.683 515.54 703.84 517.367C704.106 520.454 703.666 520.992 697.563 525.034C693.953 527.424 691 529.714 691 530.123C691 530.531 690.213 531.119 689.25 531.43C688.287 531.741 686.15 533.248 684.5 534.779C679.514 539.408 675.081 542.168 673.852 541.409C673.128 540.961 672.961 541.128 673.409 541.853C673.824 542.524 673.362 543.304 672.313 543.701C669.896 544.617 667.945 546.612 668.714 547.381C669.055 547.721 668.808 548 668.167 548C667.525 548 667 548.633 667 549.406C667 550.32 666.3 550.63 665 550.29C663.882 549.997 663 550.259 663 550.883C663 551.498 662.355 552 661.567 552C660.779 552 659.814 553.011 659.422 554.246C658.463 557.268 655.776 559.243 654.772 557.665C654.224 556.804 654.027 556.826 654.015 557.75C654.007 558.438 653.355 559 652.567 559C651.779 559 650.863 559.857 650.531 560.904C650.198 561.95 648.368 563.547 646.463 564.45C644.558 565.354 643 566.509 643 567.016C643 567.522 642.437 567.721 641.749 567.457C640.637 567.031 637.161 572.85 637.895 573.91C638.051 574.136 637.464 574.721 636.59 575.21C635.715 575.699 635 576.877 635 577.827C635 578.778 634.081 580.343 632.957 581.304C631.834 582.266 631.186 583.491 631.516 584.027C631.847 584.562 631.641 585 631.059 585C630.477 585 630 584.475 630 583.833C630 582.537 628.572 583.635 628.375 585.083C628.306 585.587 628.194 586.436 628.125 586.969C628.056 587.501 627.325 587.678 626.5 587.362C625.55 586.997 625 587.375 625 588.393C625 589.879 623.32 590.473 620.25 590.075C619.563 589.985 619 590.331 619 590.843C619 591.745 607.029 594.438 604 594.218C603.175 594.158 598.225 594.121 593 594.135C579.373 594.173 574.479 593.812 573.354 592.687C572.976 592.309 571.815 592 570.774 592C569.734 592 569.146 591.574 569.468 591.052C569.79 590.531 569.177 590.273 568.106 590.48C565.273 591.025 562 589.964 562 588.5C562 587.803 560.987 586.956 559.75 586.617C557.842 586.094 557.728 585.835 559 584.913C560.212 584.035 560.068 583.921 558.25 584.32C556.784 584.641 556 584.342 556 583.463C556 582.721 555.212 581.525 554.25 580.807C553.288 580.088 552.381 578.919 552.236 578.208C552.091 577.497 550.777 575.022 549.316 572.708C547.855 570.394 546.623 568.275 546.58 568C546.536 567.725 545.938 567.563 545.25 567.639C544.563 567.715 544 567.153 544 566.389C544 565.625 543.29 565 542.423 565C541.556 565 539.496 563.65 537.846 562C536.196 560.35 534.071 559 533.123 559C531.3 559 529 557.182 529 555.741C529 555.269 529.52 555.203 530.155 555.595C530.876 556.041 531.037 555.869 530.585 555.138C530.187 554.494 529.465 554.212 528.981 554.512C528.497 554.811 527.557 554.041 526.893 552.8C525.723 550.615 525.662 550.606 524.913 552.522C524.204 554.337 524.135 554.306 524.07 552.143C524.021 550.484 523.56 549.955 522.515 550.356C521.616 550.701 520.568 550.062 519.857 548.733C518.561 546.312 516 543.495 516 544.491C516 544.839 513.989 543.68 511.532 541.915C509.074 540.15 507.344 538.253 507.686 537.699C508.029 537.144 507.889 536.95 507.377 537.267C506.864 537.584 505.332 536.961 503.972 535.882C502.612 534.803 497.312 530.77 492.194 526.92C485.938 522.215 482.98 519.36 483.169 518.21C483.324 517.27 483.054 515.868 482.571 515.095C481.968 514.133 482.054 513.915 482.845 514.405C483.48 514.797 484 514.657 484 514.094C484 512.396 480.238 510.806 479.406 512.152C478.962 512.87 479.129 513.038 479.845 512.595C480.48 512.203 481 512.332 481 512.882C481 515.856 478.435 514.478 477.942 511.24C477.881 510.833 477.306 509.864 476.665 509.087C475.769 508.001 475.8 507.574 476.803 507.236C477.767 506.912 477.637 506.417 476.303 505.336C475.001 504.28 474.847 503.73 475.75 503.354C477.791 502.504 477.17 501.143 475 501.71C472.533 502.355 472.412 501.195 474.75 499.308C476.377 497.996 476.353 497.936 474.407 498.466C473.175 498.801 471.324 498.297 469.907 497.241C468.583 496.255 466.337 494.86 464.916 494.143C462.94 493.147 462.372 492.151 462.505 489.92C462.6 488.314 462.39 487 462.037 487C461.684 487 460.908 484.638 460.314 481.75C459.517 477.882 459.531 476.307 460.366 475.765C461.053 475.32 461.092 475.025 460.465 475.015C459.125 474.995 456.97 458.722 456.987 448.75C456.998 442.29 456.732 441 455.392 441C454.213 441 453.937 440.386 454.359 438.704C454.858 436.718 454.569 436.421 452.218 436.501C450.723 436.552 447.932 435.786 446.015 434.797C444.098 433.809 442.162 433 441.712 433C441.262 433 439.251 431.884 437.244 430.52C434.492 428.65 433.381 428.342 432.731 429.27C432.21 430.013 432.135 429.561 432.542 428.125C433.013 426.462 432.869 425.963 432.063 426.461C430.495 427.43 427.989 425.192 428.666 423.427C428.968 422.642 428.716 422 428.107 422C427.498 422 427.064 421.663 427.143 421.25C427.486 419.454 424.654 413.919 423.6 414.323C422.961 414.568 421.914 413.657 421.273 412.298C420.335 410.311 420.365 409.926 421.424 410.332C422.248 410.649 421.794 408.902 420.213 405.669C418.823 402.826 417.644 399.082 417.593 397.349C417.542 395.616 417.199 394.383 416.831 394.608C416.275 394.949 415.822 388.422 415.868 380.728C415.874 379.754 415.521 379.178 415.083 379.449C414.645 379.719 414.4 378.041 414.538 375.72C414.675 373.399 414.331 370.938 413.772 370.25C413.071 369.389 413.104 369 413.878 369C414.495 369 415 368.502 415 367.893C415 367.284 414.315 367.049 413.477 367.371C412.234 367.847 412.149 367.591 413.012 365.977C413.793 364.517 413.756 364 412.869 364C412.207 364 411.949 363.718 412.294 363.373C412.639 363.028 412.317 361.301 411.579 359.536C410.637 357.281 410.538 355.79 411.246 354.526C411.969 353.232 411.936 352.922 411.126 353.422C410.507 353.805 410 353.641 410 353.059C410 352.477 410.563 351.986 411.25 351.97C411.944 351.953 411.721 351.486 410.75 350.92C409.788 350.359 409 349.446 409 348.891C409 348.336 409.45 348.16 410 348.5C411.343 349.33 411.261 348.732 409.592 345.515C408.378 343.174 408.12 343.056 407.709 344.651C407.448 345.668 407.379 344.147 407.557 341.272C407.735 338.397 407.461 335.785 406.947 335.467C405.952 334.853 406.254 328.015 407.355 326.235C407.717 325.65 407.447 324.942 406.756 324.662C405.864 324.3 405.818 323.913 406.599 323.326C408.125 322.179 408.103 319.857 406.466 309.5C404 293.902 403.218 287.524 403.675 286.75C403.919 286.337 405.852 286 407.971 286C411.727 286 411.842 285.893 412.528 281.75C414.604 269.204 420.423 261.291 432.18 255.027C441.736 249.935 449.851 248.455 473.713 247.449C501.521 246.277 528.203 250.241 540.324 257.344C546.37 260.887 556.232 271.73 559.519 278.449C562.631 284.809 564.747 286.427 568.226 285.104C574.204 282.831 574.776 276.462 569.875 266.752C565.566 258.216 561.104 252.623 554.151 247.043C537.476 233.66 519.935 229.235 480.5 228.463C468.95 228.237 459.147 228.04 458.715 228.026C458.283 228.012 458.958 226.935 460.215 225.634C461.472 224.333 462.666 223.411 462.869 223.586C463.279 223.94 466 221.412 466 220.677C466 219.871 471.766 214 472.557 214C472.972 214 474.802 212.863 476.624 211.473C478.743 209.857 480.759 209.118 482.219 209.424C483.473 209.686 488.775 210.163 494 210.484C503.31 211.056 506.966 211.446 514 212.62C515.925 212.941 518.625 213.388 520 213.612C521.375 213.837 525.65 214.689 529.5 215.506C533.35 216.323 537.85 216.932 539.5 216.859C541.15 216.787 544.597 217.069 547.159 217.487L551.818 218.247L551.391 214.873C551.156 213.018 550.86 210.262 550.734 208.75C550.608 207.238 550.234 206 549.904 206C549.574 206 548.513 204.087 547.547 201.75C542.814 190.297 537.356 181.326 534.699 180.632C532.063 179.942 530.006 180.91 529.97 182.857C529.942 184.322 529.829 184.311 528.927 182.762C526.403 178.431 520.718 177.509 496.5 177.504C470.575 177.498 466.847 179.213 455.212 196.5C452.62 200.35 450.239 203.725 449.919 204C449.6 204.275 448.309 206.75 447.05 209.5C445.792 212.25 444.365 215.281 443.881 216.236C443.396 217.191 443 218.616 443 219.403C443 220.19 442.54 220.987 441.979 221.174C441.417 221.361 440.855 222.973 440.729 224.755C440.603 226.538 440.136 227.997 439.691 227.998C439.246 227.999 439.152 228.437 439.482 228.971C440.138 230.033 438.922 230.37 428.5 232.015C424.65 232.622 417.45 234.175 412.5 235.466C407.55 236.757 403.299 237.617 403.053 237.376C402.284 236.624 402.982 219.829 404.088 212.5C407.065 192.758 415.636 171.944 425.081 161.517C460.739 122.151 497.731 105.631 567 98.1391C579.955 96.7381 616.594 96.9031 632 98.4331ZM544.615 442.814C544.119 443.617 542.906 444.237 527.874 451.369C516.564 456.735 508.755 462.337 504.007 468.49C500.749 472.714 499.416 473.773 498.208 473.096C497.159 472.509 496.119 472.739 495.069 473.788C493.644 475.214 493.47 475.204 493.177 473.679C492.999 472.755 492.478 472 492.02 472C491.562 472 491.441 472.971 491.752 474.158C492.223 475.962 491.973 476.226 490.223 475.768C488.92 475.428 487.92 475.765 487.576 476.662C487.233 477.556 487.448 477.841 488.141 477.413C488.821 476.993 489.061 477.267 488.755 478.111C488.477 478.875 487.668 479.362 486.956 479.194C485.907 478.945 485.902 479.178 486.93 480.416C487.966 481.664 487.913 482.229 486.642 483.501C484.495 485.648 485.547 487.809 488.467 487.251C489.924 486.973 491.065 485.876 491.436 484.399C491.767 483.08 492.535 482 493.141 482C493.859 482 493.788 482.551 492.937 483.576C492.092 484.594 491.986 485.391 492.637 485.826C493.192 486.197 493.94 487.298 494.3 488.273C495.394 491.235 497.386 491.217 504.085 488.185C507.613 486.588 511.4 484.921 512.5 484.48C513.6 484.039 523.5 483.596 534.5 483.496C545.5 483.396 556.075 483.036 558 482.695C559.925 482.355 566.515 481.601 572.643 481.021C584.667 479.882 592.325 477.714 598.836 473.603C601.104 472.172 603.149 471 603.38 471C603.61 471 606.125 472.565 608.967 474.478C617.249 480.051 628.691 483.313 640 483.324C645.225 483.329 652.65 482.789 656.5 482.122C660.35 481.456 665.525 480.781 668 480.623C674.866 480.183 687.076 482.037 690.933 484.104C694.73 486.139 695.985 485.892 694 483.5C693.293 482.648 692.953 481.714 693.243 481.423C693.534 481.133 694.7 482.396 695.834 484.231C698.045 487.808 701.646 489.003 701.697 486.175C701.714 485.254 701.331 483.995 700.846 483.377C700.362 482.759 700.246 481.521 700.59 480.627C701.007 479.54 700.68 479 699.607 479C698.723 479 698 478.523 698 477.941C698 477.359 698.508 477.196 699.13 477.58C699.818 478.006 700.071 477.736 699.776 476.889C699.51 476.125 698.49 475.646 697.51 475.825C696.142 476.075 695.854 475.668 696.27 474.075C696.621 472.733 696.337 472 695.465 472C694.723 472 691.525 469.732 688.357 466.96C681.419 460.889 673.394 456.458 657.776 450.075L646.052 445.283L640.726 447.97C633.703 451.512 628.159 455.328 626.413 457.821C623.437 462.069 606.195 465.597 592.991 464.66C580.943 463.805 571.788 460.812 567.795 456.425C566.051 454.508 561.822 451.561 558.397 449.874C554.971 448.188 551.152 445.727 549.91 444.404C547.618 441.964 545.528 441.337 544.615 442.814ZM392.638 457.5C392.322 458.325 392.499 459 393.031 459C393.564 459 394 458.325 394 457.5C394 456.675 393.823 456 393.607 456C393.391 456 392.955 456.675 392.638 457.5ZM695 474.118C695 474.668 694.55 474.84 694 474.5C693.45 474.16 693 473.432 693 472.882C693 472.332 693.45 472.16 694 472.5C694.55 472.84 695 473.568 695 474.118ZM394.5 485C394.84 485.55 395.316 486 395.559 486C395.802 486 396 485.55 396 485C396 484.45 395.523 484 394.941 484C394.359 484 394.16 484.45 394.5 485ZM562 511.789C562 513.632 569.336 519.262 575.49 522.142C578.836 523.708 584.257 525.494 587.537 526.11C595.943 527.69 609.022 527.638 613.096 526.009C616.954 524.465 630.1 515.931 633.35 512.86L635.5 510.828L631.633 511.427C629.507 511.757 627.46 512.216 627.085 512.447C626.711 512.679 622.151 513.614 616.952 514.525C605.962 516.451 591.267 516.665 582 515.033C578.425 514.404 574.15 513.676 572.5 513.416C568.288 512.753 565.447 512.109 563.593 511.397C562.717 511.061 562 511.238 562 511.789ZM779.813 514.683C780.534 514.972 781.397 514.936 781.729 514.604C782.061 514.272 781.471 514.036 780.417 514.079C779.252 514.127 779.015 514.364 779.813 514.683ZM766 535C766 535.55 765.523 536 764.941 536C764.359 536 764.16 535.55 764.5 535C764.84 534.45 765.316 534 765.559 534C765.802 534 766 534.45 766 535ZM656 556.059C656 556.641 656.45 556.84 657 556.5C657.55 556.16 658 555.684 658 555.441C658 555.198 657.55 555 657 555C656.45 555 656 555.477 656 556.059ZM645 562C644.175 562.533 643.95 562.969 644.5 562.969C645.05 562.969 646.175 562.533 647 562C647.825 561.467 648.05 561.031 647.5 561.031C646.95 561.031 645.825 561.467 645 562ZM456 594.059C456 594.641 456.45 594.84 457 594.5C457.55 594.16 458 593.684 458 593.441C458 593.198 457.55 593 457 593C456.45 593 456 593.477 456 594.059ZM729.5 594C729.84 594.55 730.568 595 731.118 595C731.668 595 731.84 594.55 731.5 594C731.16 593.45 730.432 593 729.882 593C729.332 593 729.16 593.45 729.5 594ZM506.599 628.778C509.954 631.925 513.555 635.175 514.602 636C515.65 636.825 518.53 639.072 521.003 640.993C523.476 642.913 525.65 644.826 525.833 645.243C526.017 645.659 526.983 646 527.98 646C528.977 646 531.176 647.575 532.866 649.5C534.556 651.425 536.348 653 536.848 653C537.348 653 539.724 655.587 542.128 658.75C544.533 661.913 547.175 665.048 548 665.718C550.183 667.491 554 667.315 554 665.441C554 664.445 554.452 664.163 555.25 664.66C555.938 665.088 557.494 665.31 558.709 665.153C559.924 664.996 562.399 665.539 564.209 666.359C580.23 673.621 582.47 674.413 586.267 674.154C587.788 674.05 590.353 674.648 591.967 675.483C593.58 676.317 596.252 677 597.903 677C601.137 677 606 675.154 606 673.926C606 673.512 607.237 673.514 608.75 673.931C611.385 674.657 614.336 673.963 621.5 670.936C623.15 670.238 624.725 669.611 625 669.542C625.275 669.473 626.85 668.711 628.5 667.848C631.341 666.364 634.675 665.337 639.75 664.384C641.235 664.105 642 664.449 642 665.397C642 666.187 642.551 667.017 643.224 667.241C644.836 667.779 649.986 664.821 649.994 663.354C649.997 662.723 651.575 660.824 653.5 659.134C655.425 657.444 657 655.86 657 655.614C657 655.368 660.016 652.092 663.703 648.333C667.389 644.575 670.469 640.645 670.547 639.601C670.624 638.556 671.505 637.104 672.504 636.374C673.502 635.643 675.71 633.798 677.41 632.273C679.713 630.206 682.233 629.228 687.304 628.433C691.047 627.847 694.303 627.681 694.541 628.066C694.778 628.45 694.682 631.18 694.327 634.132C692.868 646.271 694.517 686.269 697.129 702.068C698.259 708.906 699.401 715.85 699.666 717.5C699.931 719.15 700.403 721.175 700.713 722C701.024 722.825 701.39 724.175 701.526 725C701.663 725.825 702.538 729.65 703.47 733.5C706.145 744.541 706.069 745.086 701.5 747.626C699.3 748.849 697.007 750.287 696.404 750.821C695.801 751.355 692.426 753.219 688.904 754.964C685.382 756.709 681.571 759.006 680.436 760.068C679.3 761.131 678.056 762 677.67 762C676.624 762 662.77 772.124 660.75 774.365C659.787 775.432 659 775.942 659 775.497C659 775.053 657.876 775.996 656.501 777.594C655.127 779.193 654.002 780.127 654.001 779.671C654.001 779.215 651.939 780.903 649.421 783.421C646.903 785.939 644.531 788 644.15 788C642.907 788 628 802.597 628 803.815C628 804.467 627.604 804.888 627.12 804.75C626.637 804.613 625.139 805.625 623.791 807C622.444 808.375 620.477 810.235 619.421 811.134C618.364 812.033 615.7 814.937 613.5 817.588C611.3 820.238 608.098 823.875 606.383 825.67C604.669 827.465 603.507 829.173 603.8 829.467C604.093 829.76 603.583 830 602.667 830C601.75 830 601 830.516 601 831.147C601 831.778 599.351 834.307 597.335 836.767L593.67 841.24L590.324 837.37C588.484 835.241 586.728 832.713 586.422 831.75C586.116 830.787 585.146 830 584.266 830C583.386 830 582.936 829.73 583.266 829.401C583.596 829.071 582.658 827.536 581.183 825.989C576.076 820.636 573.282 817.051 573.806 816.527C574.096 816.237 573.68 816 572.882 816C572.084 816 570.634 814.65 569.659 813C568.684 811.35 567.519 810 567.069 810C566.619 810 561.755 805.612 556.26 800.25C545.377 789.629 534.347 779.722 532.733 779.119C531.581 778.688 527.836 775.602 524.398 772.25C523.129 771.013 521.643 770 521.095 770C520.547 770 519.659 769.212 519.12 768.25C518.581 767.288 517.772 766.55 517.32 766.61C516.869 766.671 515.108 765.658 513.406 764.36C511.704 763.062 509.846 762 509.278 762C508.71 762 507.646 761.278 506.914 760.396C506.181 759.514 504.664 758.373 503.541 757.861C499.77 756.142 481 745.01 481 744.492C481 744.293 481.477 742.874 482.061 741.34C482.644 739.805 483.35 736.738 483.628 734.525C483.906 732.311 484.546 729.15 485.05 727.5C488.29 716.885 491.57 695.515 492.724 677.5C493.507 665.265 493.4 636.369 492.541 628.25L491.985 623L496.243 623.028C500.029 623.053 501.175 623.689 506.599 628.778ZM291.262 3353.36C289.48 3355.73 283.481 3363.03 277.931 3369.58C272.38 3376.14 267.087 3382.4 266.169 3383.5C265.251 3384.6 261.106 3389.55 256.959 3394.5C252.811 3399.45 248.472 3404.74 247.317 3406.25C241.71 3413.58 225.311 3430.14 215.066 3438.82C198.875 3452.53 193.645 3457.06 192.5 3458.36C191.95 3458.99 189.475 3461.15 187 3463.17C181.286 3467.82 179.062 3469.87 159 3488.97C149.925 3497.61 139.585 3507.32 136.022 3510.55C126.476 3519.22 114.681 3531.38 106.613 3540.86C99.221 3549.56 99.006 3549.85 92.583 3559.57C90.428 3562.83 88.291 3565.65 87.833 3565.83C87.375 3566.02 87 3566.85 87 3567.68C87 3568.51 86.17 3570.39 85.156 3571.85C84.142 3573.31 82.23 3576.7 80.906 3579.4C79.583 3582.09 77.712 3584.79 76.75 3585.39C75.787 3585.99 75 3587.19 75 3588.05C75 3588.91 74.339 3590.49 73.532 3591.56C72.724 3592.63 72.049 3594.09 72.032 3594.8C72.014 3595.52 71.148 3598 70.107 3600.3C65.72 3610.03 65.244 3619.25 68.75 3626.6C70.046 3629.32 70.903 3629.96 73.015 3629.8C75.639 3629.6 76.24 3629.97 81.989 3635.25C83.635 3636.76 85.687 3638 86.55 3638C87.412 3638 87.84 3638.45 87.5 3639C87.16 3639.55 87.627 3640 88.537 3640C90.686 3640 95.512 3642.78 99.379 3646.25C101.066 3647.76 103.133 3649.07 103.973 3649.15C104.813 3649.24 105.95 3649.38 106.5 3649.48C110.786 3650.24 127.059 3651.2 139.496 3651.44C152.342 3651.68 155.28 3651.44 159.996 3649.76C163.023 3648.68 166.063 3647.76 166.75 3647.73C167.438 3647.69 168 3647.26 168 3646.77C168 3646.27 168.9 3646.15 170 3646.5C171.121 3646.86 172 3646.68 172 3646.1C172 3645.53 172.675 3645.32 173.5 3645.64C174.325 3645.95 175 3645.69 175 3645.05C175 3644.41 175.45 3644.16 176 3644.5C176.55 3644.84 177 3644.62 177 3644C177 3643.38 177.419 3643.14 177.931 3643.46C178.443 3643.77 179.132 3643.6 179.463 3643.06C179.794 3642.53 180.679 3642.32 181.431 3642.61C182.183 3642.9 183.095 3642.66 183.458 3642.07C183.821 3641.48 184.806 3641 185.647 3641C186.488 3641 189.988 3639.7 193.423 3638.11C196.859 3636.52 202.225 3634.65 205.347 3633.95C208.469 3633.25 211.523 3632.07 212.134 3631.34C212.745 3630.6 213.781 3630 214.435 3630C215.09 3630 217.958 3628.88 220.808 3627.5C223.658 3626.12 226.899 3625 228.009 3625C229.119 3625 230.809 3624.6 231.764 3624.12C232.719 3623.63 234.625 3622.76 236 3622.17C237.375 3621.59 241.078 3619.97 244.229 3618.58C247.38 3617.19 250.57 3616.28 251.319 3616.57C252.067 3616.86 253.253 3616.4 253.953 3615.56C254.654 3614.71 255.626 3614.27 256.113 3614.57C256.601 3614.87 257 3614.64 257 3614.06C257 3613.48 258.098 3613 259.441 3613C260.784 3613 262.16 3612.55 262.5 3612C262.84 3611.45 263.991 3611 265.059 3611C266.127 3611 267 3610.61 267 3610.14C267 3609.66 268.125 3609.49 269.5 3609.75C270.875 3610.02 272 3609.79 272 3609.25C272 3608.71 273.579 3608 275.51 3607.69C277.44 3607.38 280.361 3606.17 282 3605C283.64 3603.83 285.886 3602.81 286.991 3602.73C288.096 3602.64 289 3602.22 289 3601.79C289 3601.35 289.675 3601 290.5 3601C291.325 3601 292 3600.52 292 3599.94C292 3599.36 292.47 3599.17 293.044 3599.53C293.618 3599.88 294.812 3599.57 295.697 3598.84C296.583 3598.1 297.47 3597.63 297.668 3597.8C298.275 3598.29 309.477 3594.58 309.833 3593.76C310.017 3593.34 310.698 3593 311.348 3593C311.998 3593 314.21 3592.1 316.265 3591C318.319 3589.9 320 3589.23 320 3589.52C320 3589.81 321.139 3589.3 322.531 3588.39C323.923 3587.47 325.329 3587 325.655 3587.32C325.98 3587.65 327.741 3586.77 329.566 3585.38C331.392 3583.99 333.136 3582.88 333.443 3582.93C336.246 3583.3 338.015 3582.83 337.42 3581.87C336.995 3581.18 337.266 3580.93 338.111 3581.21C339.392 3581.65 343.265 3580.1 350.302 3576.33C351.843 3575.5 353.772 3575.08 354.59 3575.4C355.407 3575.71 356.316 3575.34 356.611 3574.57C356.905 3573.81 359.138 3572.59 361.573 3571.87C364.008 3571.15 366 3570.16 366 3569.68C366 3569.19 366.675 3569.05 367.5 3569.36C368.325 3569.68 369 3569.5 369 3568.97C369 3568.44 369.618 3568 370.373 3568C371.128 3568 373.715 3567.13 376.123 3566.06C378.53 3565 380.725 3564.18 381 3564.24C381.275 3564.3 383.558 3563.19 386.074 3561.79C388.59 3560.39 392.077 3558.92 393.824 3558.54C395.571 3558.16 397.001 3557.54 397.002 3557.17C397.003 3556.8 398.432 3556.4 400.177 3556.28C401.921 3556.15 403.653 3555.56 404.024 3554.96C404.993 3553.39 410.055 3550.92 411.043 3551.53C411.502 3551.81 412.242 3551.42 412.689 3550.67C413.714 3548.93 417.98 3546.65 418.754 3547.42C419.075 3547.74 420.122 3547.29 421.081 3546.43C422.04 3545.56 423.494 3544.75 424.311 3544.63C425.129 3544.51 426.519 3543.81 427.399 3543.08C428.28 3542.35 429 3542.1 429 3542.53C429 3542.96 429.817 3542.57 430.816 3541.67C431.814 3540.76 434.057 3539.74 435.799 3539.39C437.542 3539.04 438.723 3538.36 438.425 3537.88C438.126 3537.39 438.471 3536.97 439.191 3536.93C442.534 3536.74 445.53 3535.85 445.833 3534.97C446.017 3534.44 446.997 3534 448.012 3534C449.027 3534 450.452 3533.42 451.179 3532.71C451.905 3532 454.075 3530.78 456 3530C457.925 3529.23 459.954 3528 460.509 3527.27C461.726 3525.67 461.696 3454.58 460.466 3426.5C460.008 3416.05 459.651 3399.15 459.673 3388.94L459.713 3370.37L456.106 3370.63C454.123 3370.77 449.35 3371.22 445.5 3371.62C434.615 3372.77 417.06 3372.35 396 3370.43C392.425 3370.11 387.25 3369.69 384.5 3369.51C381.75 3369.33 376.125 3368.83 372 3368.39C367.875 3367.96 364.075 3367.72 363.555 3367.86C363.036 3368.01 361.686 3367.68 360.555 3367.14C358.904 3366.34 352.903 3365 350.527 3364.89C350.258 3364.88 346.993 3364 343.272 3362.94C339.551 3361.87 335.267 3361 333.753 3361C332.239 3361 331 3360.52 331 3359.94C331 3359.36 330.555 3359.16 330.011 3359.49C328.737 3360.28 313.845 3356.41 308 3353.77C303.052 3351.54 296.104 3348.98 295.124 3349.03C294.781 3349.05 293.043 3351 291.262 3353.36ZM889 3349.7C888.175 3349.99 884.8 3351.49 881.5 3353.03C876.299 3355.45 856.359 3360.95 850.5 3361.57C847.551 3361.89 843.398 3362.9 840.491 3364C839.083 3364.54 837.609 3364.91 837.215 3364.82C836.258 3364.61 828.884 3366 827 3366.75C825.013 3367.54 824.518 3367.59 802.5 3369.43C766.063 3372.46 754.9 3372.87 743 3371.61C738.875 3371.17 733.818 3370.77 731.762 3370.72L728.025 3370.64L727.585 3400.07C727.343 3416.26 726.833 3434 726.451 3439.5C725.774 3449.26 725.514 3490.4 725.976 3514.61C726.189 3525.81 726.748 3529.23 728.346 3529.13C729.928 3529.03 735 3531.29 735 3532.1C735 3532.59 735.563 3533 736.25 3533.01C736.938 3533.01 738.79 3533.69 740.368 3534.51C741.945 3535.33 744.384 3536.21 745.787 3536.47C747.19 3536.72 748.599 3537.33 748.919 3537.82C749.239 3538.31 751.188 3539.26 753.25 3539.93C755.313 3540.61 757 3541.62 757 3542.19C757 3542.75 757.663 3542.96 758.474 3542.65C759.286 3542.34 760.394 3542.85 760.943 3543.79C761.553 3544.84 761.951 3545 761.97 3544.21C761.994 3543.16 762.256 3543.16 763.395 3544.21C764.162 3544.92 764.645 3545.74 764.467 3546.04C764.29 3546.33 765.329 3546.67 766.778 3546.79C768.226 3546.91 769.859 3547.46 770.406 3548.01C770.953 3548.55 772.435 3549 773.7 3549C775.056 3549 776 3549.6 776 3550.47C776 3551.36 776.586 3551.71 777.5 3551.36C778.325 3551.05 779 3551.28 779 3551.89C779 3552.5 779.643 3553 780.429 3553C781.214 3553 782.563 3553.71 783.425 3554.57C784.287 3555.43 786.007 3556.26 787.246 3556.42C789.512 3556.71 791.878 3557.59 799.777 3561.1C802.129 3562.15 804.716 3563 805.527 3563C806.337 3563 807 3563.49 807 3564.08C807 3564.68 807.541 3564.99 808.202 3564.77C808.863 3564.55 810.191 3565.04 811.154 3565.86C812.117 3566.69 813.903 3567.51 815.124 3567.7C816.344 3567.89 817.87 3568.48 818.514 3569.01C819.157 3569.55 819.98 3569.69 820.342 3569.32C820.704 3568.96 821 3569.19 821 3569.83C821 3570.48 821.831 3571 822.846 3571C825.212 3571 831 3573.87 831 3575.04C831 3575.53 831.631 3575.69 832.403 3575.4C833.175 3575.1 835.632 3575.79 837.863 3576.93C840.095 3578.07 842.42 3579 843.032 3579C843.643 3579 844.844 3579.7 845.7 3580.56C846.557 3581.41 847.875 3581.88 848.629 3581.59C849.383 3581.3 850 3581.46 850 3581.95C850 3582.44 851.463 3583.15 853.25 3583.53C855.037 3583.91 857.29 3584.92 858.256 3585.77C859.222 3586.62 860.296 3587.04 860.643 3586.69C860.99 3586.34 862.501 3586.93 864 3588C865.499 3589.07 866.956 3589.71 867.237 3589.43C867.518 3589.15 869.38 3589.88 871.374 3591.06C873.368 3592.24 875 3592.86 875 3592.44C875 3592.03 875.838 3592.45 876.863 3593.38C877.888 3594.3 879.575 3595.27 880.613 3595.52C889.755 3597.73 892 3598.45 892 3599.17C892 3599.63 892.868 3600 893.929 3600C894.989 3600 896.532 3600.68 897.357 3601.5C898.182 3602.32 899.677 3603 900.679 3603C901.68 3603.01 904.3 3604.12 906.5 3605.47C908.7 3606.83 911.737 3607.95 913.25 3607.97C914.763 3607.99 916 3608.5 916 3609.12C916 3609.74 916.882 3610 918 3609.71C919.1 3609.42 920 3609.59 920 3610.09C920 3610.59 921.125 3611 922.5 3611C923.875 3611 925 3611.45 925 3612C925 3612.55 926.125 3613 927.5 3613C928.875 3613 930 3613.48 930 3614.06C930 3614.64 930.414 3614.86 930.919 3614.55C931.425 3614.24 932.547 3614.69 933.412 3615.55C934.277 3616.42 935.372 3616.89 935.846 3616.59C936.788 3616.01 943.17 3618.06 944.043 3619.23C944.342 3619.62 945.467 3620.09 946.543 3620.25C947.62 3620.42 949.175 3620.99 950 3621.52C951.91 3622.75 958.125 3624.97 959.707 3624.99C960.37 3624.99 964.645 3626.8 969.207 3628.99C973.768 3631.19 978.287 3632.99 979.25 3632.99C980.213 3633 981.001 3633.34 981.002 3633.75C981.003 3634.16 982.268 3634.59 983.813 3634.7C985.358 3634.8 989.68 3636.3 993.416 3638.03C997.152 3639.76 1001.06 3640.96 1002.1 3640.68C1003.3 3640.37 1004 3640.7 1004 3641.59C1004 3642.37 1004.9 3643.06 1006 3643.12C1008.54 3643.28 1008.8 3643.36 1012.95 3645.23C1014.84 3646.09 1016.98 3646.56 1017.7 3646.29C1018.41 3646.01 1019 3646.36 1019 3647.06C1019 3647.76 1019.26 3648.08 1019.57 3647.77C1019.88 3647.45 1022.69 3648.15 1025.82 3649.3C1030.49 3651.04 1033.85 3651.42 1044.75 3651.47C1052.04 3651.51 1058 3651.3 1058 3651.02C1058 3650.73 1061.04 3650.48 1064.75 3650.46C1080.11 3650.35 1084.22 3649.66 1087.69 3646.59C1090.16 3644.42 1091.62 3643.46 1095.53 3641.51C1097.71 3640.42 1100.22 3638.74 1101.1 3637.78C1101.98 3636.82 1102.97 3636.31 1103.3 3636.64C1104.05 3637.38 1107.08 3634.47 1106.45 3633.62C1106.2 3633.28 1106.3 3633.23 1106.68 3633.51C1107.05 3633.79 1108.41 3633.02 1109.71 3631.8C1111 3630.59 1113.26 3629.57 1114.71 3629.55C1116.97 3629.51 1117.71 3628.68 1119.66 3624C1121.29 3620.09 1121.79 3617.41 1121.39 3614.72C1121.07 3612.65 1120.72 3610.3 1120.6 3609.5C1120.49 3608.71 1120.08 3607.75 1119.7 3607.36C1119.31 3606.98 1119 3605.9 1119 3604.96C1119 3604.02 1117.85 3600.61 1116.44 3597.37C1115.03 3594.14 1113.36 3590.3 1112.72 3588.82C1112.09 3587.35 1111.22 3586.36 1110.79 3586.63C1110.35 3586.9 1110 3586.45 1110 3585.63C1110 3584.81 1109.44 3583.55 1108.75 3582.82C1106.83 3580.79 1101 3569.31 1101 3567.55C1101 3566.7 1100.56 3566 1100.02 3566C1099.48 3566 1096.92 3562.74 1094.33 3558.75C1089.83 3551.83 1084.4 3544.95 1075.54 3534.93C1073.32 3532.42 1070.65 3529.16 1069.61 3527.68C1068.57 3526.21 1067.33 3525 1066.86 3525C1066.38 3525 1063.18 3522.19 1059.74 3518.75C1056.3 3515.31 1047.05 3506.43 1039.2 3499C1013.11 3474.34 1010.66 3472.08 998.461 3461.5C994.657 3458.2 989.284 3453.46 986.522 3450.97C983.76 3448.48 977.239 3442.85 972.03 3438.47C966.822 3434.09 959.397 3427.16 955.53 3423.08C951.664 3419 947.302 3414.41 945.838 3412.89C944.374 3411.36 940.551 3406.82 937.342 3402.8C934.133 3398.79 931.281 3395.28 931.004 3395C930.727 3394.72 928.485 3392.03 926.023 3389C923.561 3385.97 919.885 3381.7 917.855 3379.5C915.825 3377.3 913.122 3374.15 911.849 3372.5C910.576 3370.85 907.962 3367.78 906.04 3365.68C904.118 3363.58 901.86 3360.84 901.023 3359.59C898.271 3355.49 892.326 3349 891.404 3349.08C890.907 3349.12 889.825 3349.4 889 3349.7Z" fill="black"/>
</svg>
